<svg width="500" height="500" viewBox="0 0 500 500" fill="none" xmlns="http://www.w3.org/2000/svg">
<path d="M6.41917 66.8972C3.20349 32.2952 32.2952 3.20349 66.8972 6.41917C129.834 12.2681 218.912 20 250 20C281.088 20 370.166 12.2681 433.103 6.41917C467.705 3.20349 496.797 32.2952 493.581 66.8972C487.732 129.834 480 218.912 480 250C480 281.088 487.732 370.166 493.581 433.103C496.797 467.705 467.705 496.797 433.103 493.581C370.166 487.732 281.088 480 250 480C218.912 480 129.834 487.732 66.8972 493.581C32.2952 496.797 3.20349 467.705 6.41917 433.103C12.2681 370.166 20 281.088 20 250C20 218.912 12.2681 129.834 6.41917 66.8972Z" fill="#333333"/>
<path d="M42.3845 102.892C39.2053 68.2868 68.2868 39.2053 102.892 42.3845C155.853 47.2501 224.938 53.12 250 53.12C275.062 53.12 344.147 47.2501 397.108 42.3845C431.713 39.2053 460.795 68.2868 457.615 102.892C452.75 155.853 446.88 224.938 446.88 250C446.88 275.062 452.75 344.147 457.615 397.108C460.795 431.713 431.713 460.795 397.108 457.615C344.147 452.75 275.062 446.88 250 446.88C224.938 446.88 155.853 452.75 102.892 457.615C68.2868 460.795 39.2053 431.713 42.3845 397.108C47.2501 344.147 53.12 275.062 53.12 250C53.12 224.938 47.2501 155.853 42.3845 102.892Z" fill="url(#paint0_linear_3_10)"/>
<path d="M56.3479 116.883C53.188 82.2758 82.2758 53.188 116.883 56.3479C165.585 60.7949 226.812 65.9385 249.462 65.9385C272.113 65.9385 333.34 60.7949 382.042 56.3479C416.649 53.188 445.737 82.2758 442.577 116.883C438.13 165.585 432.986 226.812 432.986 249.462C432.986 272.113 438.13 333.34 442.577 382.042C445.737 416.649 416.649 445.737 382.042 442.577C333.34 438.13 272.113 432.986 249.462 432.986C226.812 432.986 165.585 438.13 116.883 442.577C82.2758 445.737 53.188 416.649 56.3479 382.042C60.7949 333.34 65.9385 272.113 65.9385 249.462C65.9385 226.812 60.7949 165.585 56.3479 116.883Z" fill="#333333"/>
<path d="M265.895 227.398C269.015 229.959 271.529 233.179 273.255 236.828C274.981 240.477 275.875 244.464 275.875 248.5C275.875 263.613 263.613 275.875 248.5 275.875C233.387 275.875 221.125 263.613 221.125 248.5C221.113 244.476 221.988 240.499 223.689 236.851C225.389 233.204 227.873 229.976 230.963 227.398M248.5 221.125V248.5" stroke="#232323" stroke-width="4.5625" stroke-linecap="round" stroke-linejoin="round"/>
<defs>
<linearGradient id="paint0_linear_3_10" x1="250" y1="36" x2="250" y2="464" gradientUnits="userSpaceOnUse">
<stop stop-color="#389FD9"/>
<stop offset="1" stop-color="#ADE2FF"/>
</linearGradient>
</defs>
</svg>
