<svg width="582" height="1143" viewBox="0 0 582 1143" fill="none" xmlns="http://www.w3.org/2000/svg">
<rect x="8" y="8" width="566" height="1127" rx="106" fill="white" stroke="#4D4D4D" stroke-width="16"/>
<rect x="236" y="119" width="113" height="201.749" rx="14.7632" fill="url(#paint0_radial_102_47)"/>
<path d="M255.5 165H332.5C333.328 165 334 165.672 334 166.5C334 167.328 333.328 168 332.5 168H255.5C254.672 168 254 167.328 254 166.5C254 165.672 254.672 165 255.5 165Z" fill="white"/>
<path d="M255.5 174H332.5C333.328 174 334 174.672 334 175.5C334 176.328 333.328 177 332.5 177H255.5C254.672 177 254 176.328 254 175.5C254 174.672 254.672 174 255.5 174Z" fill="white"/>
<path d="M255.5 183H332.5C333.328 183 334 183.672 334 184.5C334 185.328 333.328 186 332.5 186H255.5C254.672 186 254 185.328 254 184.5C254 183.672 254.672 183 255.5 183Z" fill="white"/>
<circle cx="329.5" cy="142.5" r="4.5" fill="#2DD36F"/>
<path d="M233.33 22.834L228.092 14.834C225.045 10.1785 228.385 4 233.949 4H349.051C354.615 4 357.955 10.1785 354.908 14.834L349.67 22.834C348.377 24.8096 346.175 26 343.814 26H239.186C236.825 26 234.623 24.8096 233.33 22.834Z" fill="#4D4D4D"/>
<circle cx="246" cy="14" r="5" fill="white"/>
<rect x="259" y="9" width="83" height="10" rx="5" fill="white"/>
<rect x="128" y="818" width="326" height="94.7488" rx="14.7632" fill="url(#paint1_radial_102_47)"/>
<rect x="128" y="837.271" width="326" height="11.2414" fill="url(#paint2_linear_102_47)"/>
<circle cx="291.5" cy="571.5" r="56.5" fill="#2DD36F"/>
<path d="M317.305 550.856L281.178 592.144L265.695 576.661" stroke="white" stroke-width="5.16106" stroke-linecap="round" stroke-linejoin="round"/>
<line x1="292.5" y1="794" x2="292.5" y2="648" stroke="#B6B6B6" stroke-width="11" stroke-dasharray="10 20"/>
<line x1="294.5" y1="498" x2="294.5" y2="352" stroke="#B6B6B6" stroke-width="11" stroke-dasharray="10 20"/>
<defs>
<radialGradient id="paint0_radial_102_47" cx="0" cy="0" r="1" gradientUnits="userSpaceOnUse" gradientTransform="translate(292.5 219.874) rotate(90.5887) scale(514.658 289.379)">
<stop stop-color="#363636"/>
<stop offset="1"/>
</radialGradient>
<radialGradient id="paint1_radial_102_47" cx="0" cy="0" r="1" gradientUnits="userSpaceOnUse" gradientTransform="translate(291 865.374) rotate(93.6119) scale(242.171 833.231)">
<stop stop-color="#363636"/>
<stop offset="1"/>
</radialGradient>
<linearGradient id="paint2_linear_102_47" x1="128" y1="848.512" x2="450.788" y2="848.512" gradientUnits="userSpaceOnUse">
<stop stop-color="#3880FF"/>
<stop offset="1" stop-color="#3DC2FF"/>
</linearGradient>
</defs>
</svg>
